<?xml version="1.0" encoding="UTF-8"?>
<svg width="555px" height="247px" viewBox="0 0 555 247" version="1.1" xmlns="http://www.w3.org/2000/svg" xmlns:xlink="http://www.w3.org/1999/xlink">
    <!-- Generator: Sketch 55 (78076) - https://sketchapp.com -->
    <title>Illustration</title>
    <desc>Created with Sketch.</desc>
    <g id="D0C" stroke="none" stroke-width="1" fill="none" fill-rule="evenodd">
        <g id="Apply-to-Cadre" transform="translate(-443.000000, -270.000000)">
            <g id="Illustration" transform="translate(442.000000, 271.000000)">
                <path d="M16.0351657,191.687575 L553.593695,189.005955 C554.698251,189.000445 555.598137,189.891398 555.603647,190.995953 C555.608383,191.945304 554.945062,192.767169 554.016105,192.962943 C507.351565,202.797315 484.019295,211.947262 484.019295,220.412785 C484.019295,220.412785 484.019295,220.412785 484.019295,220.412785 L484.019295,220.412785 C484.019295,234.544231 472.563495,246.00003 458.43205,246.00003 L25.1672694,246.000002 C16.586898,246.000002 9.6311326,239.044236 9.6311326,230.463865 C9.6311326,226.782201 10.9385944,223.220178 13.3204408,220.412785 C13.3204408,220.412785 13.3204408,220.412785 13.3204408,220.412785 C13.3204408,220.412785 13.3204408,220.412785 13.3204408,220.412785 L13.3204408,220.412785 C5.46281486,218.873542 0.340753899,211.255874 1.87999744,203.398248 C3.20744544,196.621809 9.13001859,191.722022 16.0351657,191.687575 Z" id="Rectangle" fill="#EFF3F2"></path>
                <g id="illus" transform="translate(70.738700, 0.000000)">
                    <ellipse id="Oval" fill="#FF6584" fill-rule="nonzero" cx="422.345621" cy="48.9021926" rx="24.4852514" ry="24.5176901"></ellipse>
                    <path d="M329.08214,209.847844 L329.08214,165.373705" id="Path" stroke="#3F3D56" stroke-width="0.8" fill="#3F3D56" fill-rule="nonzero"></path>
                    <ellipse id="Oval" fill="#3F3D56" fill-rule="nonzero" cx="329.08214" cy="165.373705" rx="6.28095027" ry="6.28927145"></ellipse>
                    <path d="M329.08214,192.784035 C329.08214,192.784035 328.184859,173.459913 309.790645,175.70608" id="Path" fill="#3F3D56" fill-rule="nonzero"></path>
                    <path d="M417.558831,210.159836 L417.558831,61.814955" id="Path" stroke="#3F3D56" stroke-width="0.8" fill="#3F3D56" fill-rule="nonzero"></path>
                    <ellipse id="Oval" fill="#3F3D56" fill-rule="nonzero" cx="417.558831" cy="61.7446746" rx="6.28095027" ry="6.28927145"></ellipse>
                    <ellipse id="Oval" fill="#3F3D56" fill-rule="nonzero" cx="398.26734" cy="169.072956" rx="6.28095027" ry="6.28927145"></ellipse>
                    <path d="M417.558831,93.8705826 C417.558831,93.8705826 416.661554,74.5464606 398.26734,76.7926282" id="Path" fill="#3F3D56" fill-rule="nonzero"></path>
                    <path d="M417.558831,148.652297 C417.558831,148.652297 416.661554,129.328171 398.26734,131.574339" id="Path" fill="#3F3D56" fill-rule="nonzero"></path>
                    <path d="M417.558831,208.43104 C417.558831,208.43104 421.596586,170.869889 398.26734,169.072956" id="Path" stroke="#3F3D56" stroke-width="0.8"></path>
                    <ellipse id="Oval" fill="#3F3D56" fill-rule="nonzero" cx="436.85308" cy="169.072956" rx="6.28095027" ry="6.28927145"></ellipse>
                    <path d="M417.561584,208.43104 C417.561584,208.43104 413.52383,170.869889 436.853076,169.072956" id="Path" stroke="#3F3D56" stroke-width="0.8"></path>
                    <ellipse id="Oval" fill="#3F3D56" fill-rule="nonzero" cx="437.235659" cy="110.077263" rx="6.28095027" ry="6.28927145"></ellipse>
                    <path d="M417.944164,147.431805 C417.944164,147.431805 413.906409,111.874199 437.235659,110.077267" id="Path" stroke="#3F3D56" stroke-width="0.8"></path>
                    <path d="M375.947193,209.95067 L375.947193,119.399555" id="Path" stroke="#3F3D56" stroke-width="0.8" fill="#3F3D56" fill-rule="nonzero"></path>
                    <ellipse id="Oval" fill="#3F3D56" fill-rule="nonzero" cx="375.947193" cy="119.399555" rx="6.28095027" ry="6.28927145"></ellipse>
                    <path d="M375.947193,145.012952 C375.947193,145.012952 375.049916,125.688826 356.655701,127.934994" id="Path" fill="#3F3D56" fill-rule="nonzero"></path>
                    <path d="M375.947193,208.221878 C375.947193,208.221878 379.984948,171.061436 356.655701,169.264499" id="Path" stroke="#3F3D56" stroke-width="0.8"></path>
                    <ellipse id="Oval" fill="#3F3D56" fill-rule="nonzero" cx="356.655701" cy="169.264499" rx="6.28095027" ry="6.28927145"></ellipse>
                    <path d="M306.655374,209.863552 L436.313387,209.863552" id="Path" stroke="#3F3D56" stroke-width="0.8"></path>
                    <rect id="Rectangle" stroke="#3F3D56" stroke-width="0.8" x="79.143603" y="0" width="179.090358" height="209.616202"></rect>
                    <path d="M79.143603,18.0983044 L258.233961,18.0983044" id="Path" stroke="#3F3D56" stroke-width="0.8"></path>
                    <ellipse id="Oval" stroke="#000000" stroke-width="0.5" fill="#FFFFFF" fill-rule="nonzero" cx="250.071669" cy="9.13465152" rx="3.12087637" ry="3.12501099"></ellipse>
                    <path d="M248.667273,7.72839457 L251.476061,10.5409085" id="Path" stroke="#000000" stroke-width="0.5" fill="#FFFFFF" fill-rule="nonzero"></path>
                    <path d="M251.476061,7.72839457 L248.667273,10.5409085" id="Path" stroke="#000000" stroke-width="0.5" fill="#FFFFFF" fill-rule="nonzero"></path>
                    <ellipse id="Oval" stroke="#3F3D56" stroke-width="0.8" cx="250.071669" cy="9.13465152" rx="3.12087637" ry="3.12501099"></ellipse>
                    <path d="M248.667273,7.72839457 L251.476061,10.5409085" id="Path" stroke="#3F3D56" stroke-width="0.8"></path>
                    <path d="M251.476061,7.72839457 L248.667273,10.5409085" id="Path" stroke="#3F3D56" stroke-width="0.8"></path>
                    <rect id="Rectangle" fill="#3F3D56" fill-rule="nonzero" x="92.1072513" y="7.21156784" width="27.8478319" height="3.84616738"></rect>
                    <rect id="Rectangle" fill="#3F3D56" fill-rule="nonzero" x="140.600885" y="7.21156784" width="27.8478319" height="3.84616738"></rect>
                    <rect id="Rectangle" fill="#3F3D56" fill-rule="nonzero" x="189.094522" y="7.21156784" width="27.8478319" height="3.84616738"></rect>
                    <rect id="Rectangle" fill="#3F3D56" fill-rule="nonzero" x="119.955079" y="46.1540245" width="96.9872708" height="11.5385061"></rect>
                    <rect id="Rectangle" fill="#3452F6" fill-rule="nonzero" x="89.7065732" y="89.9041985" width="157.484283" height="80.769547"></rect>
                    <path d="M157.324219,131.175781 C156.964842,131.175781 156.652345,130.714848 156.386719,129.792969 C156.285156,129.441404 156.158204,128.826176 156.005859,127.947266 C155.60742,128.001953 155.085941,128.099609 154.441406,128.240234 L152.882812,128.5625 C152.687499,129.074221 152.353518,129.822261 151.880859,130.806641 C151.755859,131.025392 151.585939,131.134766 151.371094,131.134766 C151.214843,131.134766 151.075196,131.078126 150.952148,130.964844 C150.829101,130.851562 150.767578,130.710938 150.767578,130.542969 C150.767578,130.355468 151.062497,129.642584 151.652344,128.404297 C151.585937,128.302734 151.552734,128.185548 151.552734,128.052734 C151.552734,127.736327 151.744139,127.533204 152.126953,127.443359 C152.572268,126.607418 153.134762,125.64649 153.814453,124.560547 C154.740239,123.080071 155.316405,122.339844 155.542969,122.339844 C155.851564,122.339844 156.062499,122.554685 156.175781,122.984375 L156.544922,124.953125 L157.417969,129.025391 L157.751953,129.951172 C157.865235,130.26758 157.921875,130.478515 157.921875,130.583984 C157.921875,130.751954 157.861329,130.892578 157.740234,131.005859 C157.61914,131.119141 157.48047,131.175781 157.324219,131.175781 Z M155.255859,124.478516 L153.580078,127.179688 C154.052737,127.058593 154.769526,126.91211 155.730469,126.740234 L155.255859,124.478516 Z M162.082031,131.205078 C161.691404,131.205078 161.261721,131.142579 160.792969,131.017578 L160.78125,133.818359 C160.78125,133.990235 160.72754,134.130859 160.620117,134.240234 C160.512695,134.34961 160.375001,134.404297 160.207031,134.404297 C160.039062,134.404297 159.901368,134.34961 159.793945,134.240234 C159.686523,134.130859 159.632812,133.990235 159.632812,133.818359 L159.650391,131.474609 L159.650391,129.136719 C159.638672,128.281246 159.609375,127.501957 159.5625,126.798828 L159.474609,125.609375 C159.474609,125.33203 159.52539,125.097657 159.626953,124.90625 C159.744141,124.67578 159.914061,124.560547 160.136719,124.560547 C160.289063,124.560547 160.416992,124.614257 160.520508,124.72168 C160.624024,124.829102 160.675781,124.960937 160.675781,125.117188 C160.675781,125.152344 160.669922,125.216796 160.658203,125.310547 C160.638672,125.431641 160.625,125.542968 160.617188,125.644531 C160.953127,125.414061 161.277342,125.241212 161.589844,125.125977 C161.902345,125.010742 162.20117,124.953125 162.486328,124.953125 C163.287113,124.953125 163.873045,125.30859 164.244141,126.019531 C164.537111,126.582034 164.683594,127.326167 164.683594,128.251953 C164.683594,129.095707 164.457034,129.791013 164.003906,130.337891 C163.523435,130.916019 162.882817,131.205078 162.082031,131.205078 Z M162.486328,126.125 C162.126951,126.125 161.802736,126.205077 161.513672,126.365234 C161.30664,126.478516 161.044923,126.685545 160.728516,126.986328 C160.779297,127.873051 160.804688,128.804683 160.804688,129.78125 C161.230471,129.945313 161.656248,130.027344 162.082031,130.027344 C162.570315,130.027344 162.943358,129.845705 163.201172,129.482422 C163.423829,129.166014 163.535156,128.755862 163.535156,128.251953 C163.535156,127.541012 163.448243,127.008791 163.274414,126.655273 C163.100585,126.301756 162.837892,126.125 162.486328,126.125 Z M168.498047,131.205078 C168.10742,131.205078 167.677737,131.142579 167.208984,131.017578 L167.197266,133.818359 C167.197266,133.990235 167.143555,134.130859 167.036133,134.240234 C166.92871,134.34961 166.791016,134.404297 166.623047,134.404297 C166.455077,134.404297 166.317383,134.34961 166.209961,134.240234 C166.102539,134.130859 166.048828,133.990235 166.048828,133.818359 L166.066406,131.474609 L166.066406,129.136719 C166.054687,128.281246 166.025391,127.501957 165.978516,126.798828 L165.890625,125.609375 C165.890625,125.33203 165.941406,125.097657 166.042969,124.90625 C166.160157,124.67578 166.330077,124.560547 166.552734,124.560547 C166.705079,124.560547 166.833007,124.614257 166.936523,124.72168 C167.04004,124.829102 167.091797,124.960937 167.091797,125.117188 C167.091797,125.152344 167.085938,125.216796 167.074219,125.310547 C167.054687,125.431641 167.041016,125.542968 167.033203,125.644531 C167.369142,125.414061 167.693358,125.241212 168.005859,125.125977 C168.318361,125.010742 168.617186,124.953125 168.902344,124.953125 C169.703129,124.953125 170.289061,125.30859 170.660156,126.019531 C170.953126,126.582034 171.099609,127.326167 171.099609,128.251953 C171.099609,129.095707 170.873049,129.791013 170.419922,130.337891 C169.939451,130.916019 169.298832,131.205078 168.498047,131.205078 Z M168.902344,126.125 C168.542967,126.125 168.218751,126.205077 167.929688,126.365234 C167.722655,126.478516 167.460939,126.685545 167.144531,126.986328 C167.195313,127.873051 167.220703,128.804683 167.220703,129.78125 C167.646487,129.945313 168.072263,130.027344 168.498047,130.027344 C168.986331,130.027344 169.359374,129.845705 169.617188,129.482422 C169.839845,129.166014 169.951172,128.755862 169.951172,128.251953 C169.951172,127.541012 169.864259,127.008791 169.69043,126.655273 C169.516601,126.301756 169.253908,126.125 168.902344,126.125 Z M173.912109,126.394531 L173.824219,129.306641 C173.824219,129.615236 173.808594,130.068356 173.777344,130.666016 C173.738281,131.056643 173.546877,131.251953 173.203125,131.251953 C172.820311,131.251953 172.628906,131.052736 172.628906,130.654297 C172.628906,130.181638 172.65039,129.471684 172.693359,128.524414 C172.736328,127.577144 172.757812,126.86719 172.757812,126.394531 C172.757812,125.777341 172.767578,125.071293 172.787109,124.276367 C172.806641,123.481441 172.816406,122.775394 172.816406,122.158203 C172.816406,121.767576 173.007811,121.572266 173.390625,121.572266 C173.777346,121.572266 173.970703,121.767576 173.970703,122.158203 C173.970703,122.775394 173.960938,123.481441 173.941406,124.276367 C173.921875,125.071293 173.912109,125.777341 173.912109,126.394531 Z M180.820312,125.773438 L178.792969,130.15625 C178.292966,131.222662 177.910158,132.115231 177.644531,132.833984 L177.257812,133.970703 C177.156249,134.251955 176.98047,134.392578 176.730469,134.392578 C176.566405,134.392578 176.424805,134.338868 176.305664,134.231445 C176.186523,134.124023 176.126953,133.990235 176.126953,133.830078 C176.126953,133.439451 176.548824,132.308603 177.392578,130.4375 L175.294922,126.400391 L175.03125,125.972656 C174.925781,125.792968 174.873047,125.642579 174.873047,125.521484 C174.873047,125.361327 174.93457,125.220704 175.057617,125.099609 C175.180665,124.978515 175.318359,124.917969 175.470703,124.917969 C175.650392,124.917969 175.789062,124.986327 175.886719,125.123047 C176.550785,126.044926 177.263668,127.357413 178.025391,129.060547 L178.892578,127.039062 C179.20508,126.33984 179.505858,125.738284 179.794922,125.234375 C179.919923,125.015624 180.083983,124.90625 180.287109,124.90625 C180.447266,124.90625 180.588867,124.96289 180.711914,125.076172 C180.834962,125.189454 180.896484,125.324218 180.896484,125.480469 C180.896484,125.566407 180.871094,125.664062 180.820312,125.773438 Z" id="Apply" fill="#8796FF" fill-rule="nonzero"></path>
                    <ellipse id="Oval" fill="#3F3D56" fill-rule="nonzero" cx="161.726825" cy="198.558467" rx="2.40067413" ry="2.40385461"></ellipse>
                    <ellipse id="Oval" fill="#3F3D56" fill-rule="nonzero" cx="168.448717" cy="198.558467" rx="2.40067413" ry="2.40385461"></ellipse>
                    <ellipse id="Oval" fill="#3F3D56" fill-rule="nonzero" cx="175.170604" cy="198.558467" rx="2.40067413" ry="2.40385461"></ellipse>
                    <rect id="Rectangle" fill="#F2F2F2" fill-rule="nonzero" x="239.738093" y="62.3834852" width="154.123339" height="20.6731577"></rect>
                    <rect id="Rectangle" stroke="#3F3D56" stroke-width="0.8" x="235.667616" y="58.6540765" width="154.123339" height="20.6731577"></rect>
                    <rect id="Rectangle" fill="#3F3D56" fill-rule="nonzero" x="250.311736" y="67.0675677" width="27.8478319" height="3.84616738"></rect>
                    <rect id="Rectangle" fill="#3F3D56" fill-rule="nonzero" x="298.80537" y="67.0675677" width="27.8478319" height="3.84616738"></rect>
                    <rect id="Rectangle" fill="#3F3D56" fill-rule="nonzero" x="347.299007" y="67.0675677" width="27.8478319" height="3.84616738"></rect>
                    <rect id="Rectangle" fill="#F2F2F2" fill-rule="nonzero" x="55.0222745" y="72.1621126" width="28.4593655" height="30.9052716"></rect>
                    <rect id="Rectangle" stroke="#3F3D56" stroke-width="0.8" x="58.5356184" y="69.9233862" width="28.4593655" height="30.9052716"></rect>
                    <ellipse id="Oval" fill="#3452F6" fill-rule="nonzero" cx="67.354012" cy="85.5767072" rx="2.00418073" ry="2.00683592"></ellipse>
                    <ellipse id="Oval" fill="#3452F6" fill-rule="nonzero" cx="72.9657189" cy="85.5767072" rx="2.00418073" ry="2.00683592"></ellipse>
                    <ellipse id="Oval" fill="#3452F6" fill-rule="nonzero" cx="78.5774257" cy="85.5767072" rx="2.00418073" ry="2.00683592"></ellipse>
                    <path d="M24.5685086,214.898447 C24.5685086,214.898447 39.1875696,222.886469 38.5909186,225.371243 C38.2672298,226.719249 30.407165,224.705633 23.0121883,222.138145 C16.776002,219.972981 26.4724685,220.931497 25.6963973,219.662407 C24.0000463,216.888409 24.5685086,214.898447 24.5685086,214.898447 Z" id="Path" fill="#2F2E41" fill-rule="nonzero"></path>
                    <path d="M59.7110403,212.562 C59.7110403,212.562 75.7899705,216.906489 75.7899705,219.462096 C75.7899705,222.017704 48.2260937,219.462096 45.9291019,217.162066 C43.6321102,214.862035 59.7110403,212.562 59.7110403,212.562 Z" id="Path" fill="#2F2E41" fill-rule="nonzero"></path>
                    <path d="M32.1471635,100.115952 L39.0381387,111.616115 C39.0381387,111.616115 50.5230854,141.516544 52.8200771,159.916803 C55.1170689,178.317061 68.8990033,210.517525 64.3050238,215.117591 C59.7110444,219.717657 36.741147,219.973217 36.741147,215.117591 L36.741147,120.816246 L32.1471635,100.115952 Z" id="Path" fill="#2F2E41" fill-rule="nonzero"></path>
                    <path d="M32.1471635,100.115952 L39.0381387,111.616115 C39.0381387,111.616115 50.5230854,141.516544 52.8200771,159.916803 C55.1170689,178.317061 68.8990033,210.517525 64.3050238,215.117591 C59.7110444,219.717657 36.741147,219.973217 36.741147,215.117591 L36.741147,120.816246 L32.1471635,100.115952 Z" id="Path" fill="#000000" fill-rule="nonzero" opacity="0.1"></path>
                    <path d="M13.7712336,90.915821 L13.7712336,100.115952 C13.7712336,102.415983 27.553168,102.415983 27.553168,102.415983 L27.553168,93.2158518 L13.7712336,90.915821 Z" id="Path" fill="#A0616A" fill-rule="nonzero"></path>
                    <path d="M20.6622168,95.5158867 L13.8988587,97.6881313 C13.8988587,97.6881313 6.88027842,111.104982 9.17727016,118.260655 C11.4742619,125.416328 18.3652291,164.516868 18.3652291,164.516868 L18.3652291,189.817248 C18.3652291,189.817248 4.58329069,212.817556 11.4742579,217.417642 C18.3652251,222.017728 32.1471635,226.87333 34.4441553,224.317739 C36.741147,221.762147 39.0381387,125.416312 39.0381387,125.416312 L39.0381387,111.616115 L36.741147,93.2158518 L20.6622168,95.5158867 Z" id="Path" fill="#2F2E41" fill-rule="nonzero"></path>
                    <ellipse id="Oval" fill="#2F2E41" fill-rule="nonzero" cx="32.6036638" cy="32.7321129" rx="13.4530513" ry="13.4708743"></ellipse>
                    <ellipse id="Oval" fill="#2F2E41" fill-rule="nonzero" cx="18.0295309" cy="14.9954646" rx="13.4530513" ry="13.4708743"></ellipse>
                    <path d="M6.42554697,26.1502196 C9.95871496,28.707238 14.510191,29.3915669 18.6375215,27.9863289 C22.764852,26.5810909 25.9563709,23.2604935 27.2006223,19.0769004 C26.5679742,24.1146384 23.1603415,28.368287 18.3863184,30.079539 C13.6122953,31.790791 8.28290439,30.6689349 4.60112649,27.177706 C0.919348582,23.6864771 -0.48934704,18.4189738 0.957344342,13.5525949 C0.343507374,18.4369557 2.4402707,23.2674712 6.42554697,26.1502196 L6.42554697,26.1502196 Z" id="Path" fill="#2F2E41" fill-rule="nonzero"></path>
                    <ellipse id="Oval" fill="#2F2E41" fill-rule="nonzero" cx="37.3122345" cy="31.272758" rx="8.74448052" ry="6.84769181"></ellipse>
                    <ellipse id="Oval" fill="#A0616A" fill-rule="nonzero" cx="34.5717684" cy="35.5872543" rx="11.3573376" ry="11.3723841"></ellipse>
                    <path d="M27.553184,42.615133 C27.553184,42.615133 29.8501758,47.2151987 25.2561963,49.5152296 C20.6622168,51.8152604 34.4441553,61.0153959 34.4441553,61.0153959 L39.0381387,44.9151639 L27.553184,42.615133 Z" id="Path" fill="#A0616A" fill-rule="nonzero"></path>
                    <path d="M29.8501758,51.8152644 C29.8501758,51.8152644 25.2561963,44.9151639 22.9592046,49.5152296 C20.6622128,54.1152953 9.17727016,67.9154924 9.17727016,81.7156895 C9.17727016,95.5158867 9.17727016,95.5158867 11.4742579,95.5158867 C13.7712456,95.5158867 20.6622168,93.2158518 22.9592046,95.5158867 C25.2561923,97.8159215 34.4441553,95.5158867 34.4441553,95.5158867 L36.741143,74.815589 C36.741143,74.815589 39.0381347,63.3154267 36.741143,61.0153959 C34.4441513,58.715365 29.8501758,51.8152644 29.8501758,51.8152644 Z" id="Path" fill="#3452F6" fill-rule="nonzero"></path>
                    <path d="M18.3652291,61.0153959 C18.3652291,61.0153959 11.4742579,95.5158867 18.3652291,97.8159175 C25.2562003,100.115948 45.9291019,109.060523 45.9291019,106.760493 C45.9291019,104.460462 48.2260937,102.160427 48.2260937,102.160427 C48.2260937,102.160427 50.5230814,104.460458 50.5230814,102.160427 L50.5230814,97.8159175 L27.5532041,88.6157861 L27.5532041,65.6154776 C27.5532041,65.6154776 32.1471835,54.1153113 27.5532041,54.1153113 C22.9592246,54.1153113 18.3652291,61.0153959 18.3652291,61.0153959 Z" id="Path" fill="#3452F6" fill-rule="nonzero"></path>
                    <path d="M48.2260937,97.8159175 C48.2260937,97.8159175 64.0497976,97.8159175 64.3050198,102.415983 C64.560242,107.016049 48.2260937,102.160427 48.2260937,102.160427 L48.2260937,97.8159175 Z" id="Path" fill="#A0616A" fill-rule="nonzero"></path>
                    <ellipse id="Oval" fill="#2F2E41" fill-rule="nonzero" transform="translate(33.168056, 28.048252) rotate(-17.485360) translate(-33.168056, -28.048252) " cx="33.1680556" cy="28.0482523" rx="10.3376893" ry="5.74939569"></ellipse>
                </g>
            </g>
        </g>
    </g>
</svg>
