<?xml version="1.0" encoding="UTF-8"?>
<svg width="22px" height="23px" viewBox="0 0 22 23" version="1.1" xmlns="http://www.w3.org/2000/svg" xmlns:xlink="http://www.w3.org/1999/xlink">
    <!-- Generator: sketchtool 55 (78076) - https://sketchapp.com -->
    <title>0156ECB8-ECDE-4F03-A874-71B65D536C46</title>
    <desc>Created with sketchtool.</desc>
    <g id="D0C" stroke="none" stroke-width="1" fill="none" fill-rule="evenodd">
        <g id="Cadre-&gt;-Projects" transform="translate(-900.000000, -92.000000)" fill="#0459E4" fill-rule="nonzero">
            <g id="NAVBAR">
                <g id="Header">
                    <g id="Menu" transform="translate(390.000000, 92.000000)">
                        <g id="Vacancies" transform="translate(510.000000, 0.000000)">
                            <g id="rocket">
                                <g id="Advancements-Copy">
                                    <path d="M18.8571429,19.7719298 C18.47984,19.7727208 18.105807,19.8438136 17.7532143,19.9817544 C17.3724746,19.1758393 16.6828129,18.5686601 15.8491777,18.3054378 C15.0155424,18.0422154 14.1129017,18.1466213 13.3571429,18.5936842 L13.3571429,15.7368421 L12.5714286,15.7368421 L12.5714286,19.2594737 C12.0670191,19.8469211 11.7877671,20.6027007 11.7857143,21.3859649 L12.5714286,21.3859649 C12.5757456,20.2557093 13.3408915,19.278913 14.4148712,19.0325993 C15.488851,18.7862857 16.5858582,19.3360034 17.0578571,20.3570175 C16.2169791,20.9600806 15.7154704,21.9466142 15.7142857,23 L16.5,23 C16.5,21.6628896 17.5553288,20.5789474 18.8571429,20.5789474 C20.1589569,20.5789474 21.2142857,21.6628896 21.2142857,23 L22,23 C22,21.2171861 20.5928949,19.7719298 18.8571429,19.7719298 Z" id="Path"></path>
                                    <path d="M9.42857143,15.7368421 L8.64285714,15.7368421 L8.64285714,18.5936842 C7.88709832,18.1466213 6.98445757,18.0422154 6.15082233,18.3054378 C5.31718708,18.5686601 4.62752535,19.1758393 4.24678571,19.9817544 C3.28226959,19.6101004 2.20165802,19.747536 1.35453058,20.3496004 C0.50740313,20.9516649 0.00132004262,21.9419138 0,23 L0.785714286,23 C0.785714286,21.6628896 1.84104309,20.5789474 3.14285714,20.5789474 C4.4446712,20.5789474 5.5,21.6628896 5.5,23 L6.28571429,23 C6.28452955,21.9466142 5.78302095,20.9600806 4.94214286,20.3570175 C5.41414184,19.3360034 6.51114903,18.7862857 7.58512875,19.0325993 C8.65910847,19.278913 9.42425439,20.2557093 9.42857143,21.3859649 L10.2142857,21.3859649 C10.2122329,20.6027007 9.9329809,19.8469211 9.42857143,19.2594737 L9.42857143,15.7368421 Z" id="Path"></path>
                                    <path d="M5.69642857,16.4873684 C5.7550796,16.5256106 5.82339952,16.5452589 5.89285714,16.5438596 C5.96167644,16.5443478 6.02941314,16.5262588 6.08928571,16.4914035 L8.74892857,14.9298246 L9.03571429,14.9298246 L9.03571429,13.3157895 C9.03571429,12.2015308 9.91515496,11.2982456 11,11.2982456 C12.084845,11.2982456 12.9642857,12.2015308 12.9642857,13.3157895 L12.9642857,14.9298246 L13.2510714,14.9298246 L15.9107143,16.4914035 C15.9705869,16.5262588 16.0383236,16.5443478 16.1071429,16.5438596 C16.1766005,16.5452589 16.2449204,16.5256106 16.3035714,16.4873684 C16.4243925,16.4157245 16.4991579,16.2836413 16.5,16.1403509 C16.5012629,14.6359245 15.832697,13.2134891 14.685,12.2787719 C15.124381,10.6456799 15.3386101,8.95736697 15.3214286,7.26315789 C15.3276398,6.44180196 15.206974,5.62463229 14.9639286,4.84210526 L7.03607143,4.84210526 C6.793026,5.62463229 6.67236024,6.44180196 6.67857143,7.26315789 C6.6619007,8.95866282 6.87611727,10.6482351 7.315,12.282807 C6.16652007,13.2151108 5.49760901,14.6367934 5.5,16.1403509 C5.50084207,16.2836413 5.5756075,16.4157245 5.69642857,16.4873684 Z M11,6.45614035 C12.084845,6.45614035 12.9642857,7.3594255 12.9642857,8.47368421 C12.9642857,9.58794292 12.084845,10.4912281 11,10.4912281 C9.91515496,10.4912281 9.03571429,9.58794292 9.03571429,8.47368421 C9.03571429,7.3594255 9.91515496,6.45614035 11,6.45614035 L11,6.45614035 Z" id="Shape"></path>
                                    <path d="M12.1785714,15.7368421 L12.1785714,13.3157895 C12.1785714,12.6472343 11.650907,12.1052632 11,12.1052632 C10.349093,12.1052632 9.82142857,12.6472343 9.82142857,13.3157895 L9.82142857,15.7368421 C9.82142857,16.4053973 10.349093,16.9473684 11,16.9473684 C11.650907,16.9473684 12.1785714,16.4053973 12.1785714,15.7368421 Z" id="Path"></path>
                                    <path d="M13.7971429,4.03508772 L14.6614286,4.03508772 C13.9295314,2.4461397 12.6783855,1.17106624 11.1257143,0.431754386 L11,0.37122807 L10.8546429,0.431754386 C9.3019716,1.17106624 8.05082578,2.4461397 7.31892857,4.03508772 L13.7971429,4.03508772 L13.7971429,4.03508772 Z" id="Path"></path>
                                    <ellipse id="Oval" cx="11" cy="8.47368421" rx="1.17857143" ry="1.21052632"></ellipse>
                                </g>
                            </g>
                        </g>
                    </g>
                </g>
            </g>
        </g>
    </g>
</svg>
