<?xml version="1.0" encoding="UTF-8"?>
<svg width="24px" height="21px" viewBox="0 0 24 21" version="1.1" xmlns="http://www.w3.org/2000/svg" xmlns:xlink="http://www.w3.org/1999/xlink">
    <!-- Generator: sketchtool 51.3 (57544) - http://www.bohemiancoding.com/sketch -->
    <title>6AF3576D-38D6-4D69-AA87-67053E4A0193</title>
    <desc>Created with sketchtool.</desc>
    <defs></defs>
    <g id="Fellows" stroke="none" stroke-width="1" fill="none" fill-rule="evenodd">
        <g id="Fellows---Dashboard" transform="translate(-855.000000, -95.000000)" fill="#0459E4" fill-rule="nonzero">
            <g id="Header">
                <g id="Menu" transform="translate(492.000000, 92.000000)">
                    <g id="History" transform="translate(363.000000, 1.000000)">
                        <g id="icon" transform="translate(0.000000, 2.000000)">
                            <path d="M13.7142857,0 C8.03428571,0 3.42857143,4.70166667 3.42857143,10.5 L0,10.5 L4.44571429,15.0383333 L4.52571429,15.2016667 L9.14285714,10.5 L5.71428571,10.5 C5.71428571,5.985 9.29142857,2.33333333 13.7142857,2.33333333 C18.1371429,2.33333333 21.7142857,5.985 21.7142857,10.5 C21.7142857,15.015 18.1371429,18.6666667 13.7142857,18.6666667 C11.5085714,18.6666667 9.50857143,17.745 8.06857143,16.2633333 L6.44571429,17.92 C8.30857143,19.8216667 10.8685714,21 13.7142857,21 C19.3942857,21 24,16.2983333 24,10.5 C24,4.70166667 19.3942857,0 13.7142857,0 Z M12.5714286,5.83333333 L12.5714286,11.6666667 L17.4628571,14.63 L18.2857143,13.2183333 L14.2857143,10.7916667 L14.2857143,5.83333333 L12.5714286,5.83333333 Z" id="Shape"></path>
                        </g>
                    </g>
                </g>
            </g>
        </g>
    </g>
</svg>
