<?xml version="1.0" encoding="UTF-8"?>
<svg width="25px" height="25px" viewBox="0 0 25 25" version="1.1" xmlns="http://www.w3.org/2000/svg" xmlns:xlink="http://www.w3.org/1999/xlink">
    <!-- Generator: sketchtool 55.1 (78136) - https://sketchapp.com -->
    <title>3B891AF2-A228-4450-8630-DCF79CA03374</title>
    <desc>Created with sketchtool.</desc>
    <g id="D0C" stroke="none" stroke-width="1" fill="none" fill-rule="evenodd">
        <g id="Cadre-&gt;-Projects-(1)" transform="translate(-1134.000000, -704.000000)" fill-rule="nonzero">
            <g id="Group-7" transform="translate(331.000000, 160.000000)">
                <g id="Card" transform="translate(720.000000, 58.000000)">
                    <g id="Group-3">
                        <g id="Group-4">
                            <g id="Group-10-Copy" transform="translate(53.000000, 472.000000)">
                                <g id="invision" transform="translate(30.000000, 14.000000)">
                                    <path d="M22.7336914,0 L2.26630859,0 C1.01464844,0 0,1.01464844 0,2.26630859 L0,22.7336914 C0,23.9853516 1.01464844,25 2.26630859,25 L22.7336914,25 C23.9853516,25 25,23.9853516 25,22.7336914 L25,2.26630859 C25,1.01464844 23.9853516,0 22.7336914,0" id="Path" fill="#DC395F"></path>
                                    <path d="M8.35498047,7.86572266 C9.18603516,7.86572266 9.88222656,7.21435547 9.88222656,6.36064453 C9.88222656,5.50751953 9.18603516,4.85625 8.35498047,4.85625 C7.52392578,4.85625 6.82792969,5.50751953 6.82792969,6.36064453 C6.82792969,7.21425781 7.52392578,7.86572266 8.35498047,7.86572266 M5.18837891,15.9243164 C5.09863281,16.3061523 5.05361328,16.718457 5.05361328,17.0547852 C5.05361328,18.3800781 5.77226563,19.2598633 7.29951172,19.2598633 C8.56611328,19.2598633 9.59296875,18.5077148 10.3323242,17.2931641 L9.88085938,19.1049805 L12.3959961,19.1049805 L13.8334961,13.3394531 C14.1928711,11.8796875 14.8890625,11.1219727 15.9447266,11.1219727 C16.7756836,11.1219727 17.2921875,11.6387695 17.2921875,12.4918945 C17.2921875,12.7390625 17.2697266,13.0083008 17.1798828,13.3003906 L16.4386719,15.9504883 C16.3263672,16.3323242 16.2816406,16.7143555 16.2816406,17.0734375 C16.2816406,18.331543 17.0225586,19.2517578 18.5722656,19.2517578 C19.8973633,19.2517578 20.952832,18.3987305 21.5368164,16.3548828 L20.5487305,15.9734375 C20.0545898,17.3426758 19.627832,17.5902344 19.290918,17.5902344 C18.9540039,17.5902344 18.7743164,17.3658203 18.7743164,16.9168945 C18.7743164,16.7147461 18.8194336,16.4904297 18.8866211,16.2203125 L19.6054688,13.6384766 C19.7850586,13.0322266 19.8525391,12.4946289 19.8525391,12.0006836 C19.8525391,10.0692383 18.6845703,9.06123047 17.2697266,9.06123047 C15.9447266,9.06123047 14.5970703,10.2564453 13.9234375,11.5143555 L14.4173828,9.25654297 L10.5771484,9.25654297 L10.0380859,11.2452148 L11.8348633,11.2452148 L10.728418,15.6749023 C9.85957031,17.6063477 8.26357422,17.6376953 8.06328125,17.5928711 C7.734375,17.5186523 7.52402344,17.39375 7.52402344,16.9664062 C7.52402344,16.7198242 7.56894531,16.365625 7.68125,15.9385742 L9.36582031,9.25654297 L5.09863281,9.25654297 L4.55957031,11.2452148 L6.33369141,11.2452148 L5.18847656,15.9243164" id="Shape" fill="#FFFFFF"></path>
                                </g>
                            </g>
                        </g>
                    </g>
                </g>
            </g>
        </g>
    </g>
</svg>