<?xml version="1.0" encoding="UTF-8"?>
<svg width="24px" height="23px" viewBox="0 0 24 23" version="1.1" xmlns="http://www.w3.org/2000/svg" xmlns:xlink="http://www.w3.org/1999/xlink">
    <!-- Generator: sketchtool 55.1 (78136) - https://sketchapp.com -->
    <title>F50BA599-C120-4A0A-BF66-406922CDAEC2</title>
    <desc>Created with sketchtool.</desc>
    <g id="D0C" stroke="none" stroke-width="1" fill="none" fill-rule="evenodd">
        <g id="Engr-Dashboard" transform="translate(-1347.000000, -22.000000)" fill-rule="nonzero" stroke-width="0.78">
            <g id="Navbar">
                <g id="Logout">
                    <g transform="translate(1348.000000, 23.000000)">
                        <g id="Group">
                            <path d="M14.8853853,1.67571506 L14.8853853,7.10784989 L13.9337513,7.10784989 L13.9337513,2.61953528 L10.9194696,2.61953528 C10.6566832,2.61953528 10.4436527,2.40825393 10.4436527,2.14762517 C10.4436527,1.88699641 10.6566832,1.67571506 10.9194696,1.67571506 L14.8853853,1.67571506 Z" id="Path" stroke="#FF6382" fill="#FF6584"></path>
                            <path d="M13.9337513,13.5013354 L14.8853853,13.5013354 L14.8853853,19.2543691 L10.9194696,19.2543691 C10.6566832,19.2543691 10.4436527,19.0430877 10.4436527,18.782459 C10.4436527,18.5218302 10.6566832,18.3105489 10.9194696,18.3105489 L13.9337513,18.3105489 L13.9337513,13.5013354 Z" id="Path" stroke="#FF6382" fill="#FF6584"></path>
                            <path d="M6.61845736,20.8962388 L0,18.3514257 L0,2.63437685 L6.61793396,0.0897950562 C7.03984559,-0.0694523565 7.51351868,-0.014944834 7.88745652,0.23588427 C8.26218307,0.491722196 8.48451102,0.911788178 8.48384701,1.36035876 L8.48384701,19.6279803 C8.4847049,19.9889363 8.34067712,20.3353896 8.08355783,20.5908515 C7.82643854,20.8463134 7.47737355,20.9897743 7.11342837,20.9895616 C6.9440421,20.9891286 6.77619948,20.957484 6.61845736,20.8962388 Z" id="Shape" stroke="#FF6382" fill="#FF6584"></path>
                            <ellipse id="Oval" stroke="#FFFFFF" fill="#FFFFFF" cx="5.05020481" cy="10.3046269" rx="1" ry="1"></ellipse>
                            <path d="M18.126542,13.2932489 L20.3939654,10.7767352 L11.9128106,10.7767352 C11.6500241,10.7767352 11.4369936,10.5654538 11.4369936,10.3048251 C11.4369936,10.0441963 11.6500241,9.83291494 11.9128106,9.83291494 L20.3974341,9.83291494 L18.1268465,7.31617 C17.9492031,7.1245186 17.9615891,6.82639535 18.1545281,6.64988851 C18.3474671,6.47338166 18.6480789,6.48516447 18.8263712,6.67622213 L21.7373681,9.88130461 C21.9585773,10.1191442 21.9586663,10.4855608 21.7375727,10.7235061 L18.826357,13.9328499 C18.6482701,14.1245136 18.3472444,14.1367128 18.1539847,13.960098 C17.9607399,13.7834585 17.9484602,13.4849112 18.126542,13.2932489 Z" id="Path" stroke="#FF6382" fill="#FF6584"></path>
                        </g>
                    </g>
                </g>
            </g>
        </g>
    </g>
</svg>