<?xml version="1.0" encoding="UTF-8"?>
<svg width="165px" height="34px" viewBox="0 0 306 67" version="1.1" xmlns="http://www.w3.org/2000/svg" xmlns:xlink="http://www.w3.org/1999/xlink">
    <!-- Generator: sketchtool 54.1 (76490) - https://sketchapp.com -->
    <title>A1FFD166-B3BB-47C8-8DD4-534F16854257</title>
    <desc>Created with sketchtool.</desc>
    <g id="Assets" stroke="none" stroke-width="1" fill="none" fill-rule="evenodd">
        <g id="LOGO" transform="translate(-250.000000, -615.000000)" fill="#FFFFFF" fill-rule="nonzero">
            <g id="WatchTower-Logo-(White)" transform="translate(250.000000, 615.000000)">
                <g id="Logo-Copy-3">
                    <path d="M16.6666667,53.3333333 L16.6666667,53.3333333 C18.5076158,53.3333333 20,51.8409492 20,50 L20,16.6666667 C20,14.8257175 18.5076158,13.3333333 16.6666667,13.3333333 L16.6666667,13.3333333 C14.8257175,13.3333333 13.3333333,14.8257175 13.3333333,16.6666667 L13.3333333,50 C13.3333333,51.8409492 14.8257175,53.3333333 16.6666667,53.3333333 Z M30,66.6666667 L30,66.6666667 C31.8409492,66.6666667 33.3333333,65.1742825 33.3333333,63.3333333 L33.3333333,3.33333333 C33.3333333,1.49238417 31.8409492,-3.38176876e-16 30,0 L30,0 C28.1590508,3.38176876e-16 26.6666667,1.49238417 26.6666667,3.33333333 L26.6666667,63.3333333 C26.6666667,65.1742825 28.1590508,66.6666667 30,66.6666667 Z M3.33333333,40 L3.33333333,40 C5.1742825,40 6.66666667,38.5076158 6.66666667,36.6666667 L6.66666667,30 C6.66666667,28.1590508 5.1742825,26.6666667 3.33333333,26.6666667 L3.33333333,26.6666667 C1.49238417,26.6666667 -2.2545125e-16,28.1590508 0,30 L8.8817842e-16,36.6666667 C1.11362967e-15,38.5076158 1.49238417,40 3.33333333,40 Z M43.3333333,53.3333333 L43.3333333,53.3333333 C45.1742825,53.3333333 46.6666667,51.8409492 46.6666667,50 L46.6666667,16.6666667 C46.6666667,14.8257175 45.1742825,13.3333333 43.3333333,13.3333333 L43.3333333,13.3333333 C41.4923842,13.3333333 40,14.8257175 40,16.6666667 L40,50 C40,51.8409492 41.4923842,53.3333333 43.3333333,53.3333333 Z M53.3333333,30 L53.3333333,36.6666667 C53.3333333,38.5076158 54.8257175,40 56.6666667,40 L56.6666667,40 C58.5076158,40 60,38.5076158 60,36.6666667 L60,30 C60,28.1590508 58.5076158,26.6666667 56.6666667,26.6666667 L56.6666667,26.6666667 C54.8257175,26.6666667 53.3333333,28.1590508 53.3333333,30 Z" id="Shape"></path>
                </g>
                <path d="M113.742559,15.707441 L105.910004,46.3490825 C105.661704,47.3204536 104.786604,48 103.784,48 L103.753131,48 C102.76443,48 101.897175,47.3404397 101.633072,46.3876654 L94.6887326,21.3353012 C94.6592273,21.2288579 94.5490192,21.1664874 94.4425759,21.1959927 C94.3749027,21.2147512 94.3220259,21.2676281 94.3032674,21.3353012 L87.3589278,46.3876654 C87.0948255,47.3404397 86.2275696,48 85.238869,48 L85.208,48 C84.2053961,48 83.3302957,47.3204536 83.0819958,46.3490825 L75.2494414,15.707441 C75.0429663,14.8996922 75.5303949,14.0775013 76.3381437,13.8710262 C76.4603094,13.8397984 76.5859063,13.824 76.712,13.824 L76.9251657,13.824 C77.9407413,13.824 78.8243416,14.5191662 79.0633652,15.5062131 L85.1453967,40.6219402 C85.1713936,40.7292943 85.2794959,40.7952473 85.38685,40.7692504 C85.4576187,40.752113 85.5134819,40.6978686 85.5326924,40.6276343 L92.4334322,15.3981777 C92.6876827,14.4686251 93.5323034,13.824 94.496,13.824 L94.496,13.824 C95.4596966,13.824 96.3043173,14.4686251 96.5585678,15.3981777 L103.459308,40.6276343 C103.488449,40.7341777 103.598444,40.7969242 103.704987,40.7677826 C103.775222,40.7485721 103.829466,40.6927089 103.846603,40.6219402 L109.928635,15.5062131 C110.167658,14.5191662 111.051259,13.824 112.066834,13.824 L112.28,13.824 C113.113721,13.824 113.789585,14.4998641 113.789585,15.3335848 C113.789585,15.4596785 113.773786,15.5852754 113.742559,15.707441 Z M129.992,48 L129.992,48 C129.037652,48 128.264,47.226348 128.264,46.272 L128.264,45.744 C126.392,47.616 124.616,48.288 121.448,48.288 C118.184,48.288 116.408,47.712 114.776,46.128 C113.576,44.976 113,43.2 113,41.328 C113,37.152 115.928,34.512 121.208,34.512 L126.064,34.512 C127.279026,34.512 128.264,33.5270264 128.264,32.312 L128.264,32.256 C128.264,28.848 126.584,27.072 122.216,27.072 C119.24,27.072 117.940234,28.1820871 116.264,29.808 C115.070251,30.9659119 112.562744,29.4034119 113.912,27.648 C115.995703,24.9370562 118.376,24.096 122.264,24.096 C128.648,24.096 131.72,26.88 131.72,31.968 L131.72,46.272 C131.72,47.226348 130.946348,48 129.992,48 Z M128.264,39.648 L128.264,37.304 C128.264,37.1935431 128.174457,37.104 128.064,37.104 L121.688,37.104 C118.136,37.104 116.36,38.496 116.36,41.28 C116.36,44.016 118.04,45.312 121.832,45.312 C123.8,45.312 125.528,45.12 127.064,43.728 C127.88,42.96 128.264,41.616 128.264,39.648 Z M144.704,48 L143.744,48 C139.712,48 137.696,45.168 137.696,41.664 L137.696,28.512 C137.696,27.6902003 137.0298,27.024 136.208,27.024 L136.04,27.024 C135.310984,27.024 134.72,26.4330159 134.72,25.704 L134.72,25.704 C134.72,24.9749841 135.310984,24.384 136.04,24.384 L136.208,24.384 C137.0298,24.384 137.696,23.7177997 137.696,22.896 L137.696,18.864 C137.696,17.909652 138.469652,17.136 139.424,17.136 L139.424,17.136 C140.378348,17.136 141.152,17.909652 141.152,18.864 L141.152,22.184 C141.152,23.3990264 142.136974,24.384 143.352,24.384 L144.872,24.384 C145.601016,24.384 146.192,24.9749841 146.192,25.704 L146.192,25.704 C146.192,26.4330159 145.601016,27.024 144.872,27.024 L143.352,27.024 C142.136974,27.024 141.152,28.0089736 141.152,29.224 L141.152,41.568 C141.152,43.728 142.16,45.024 144.368,45.024 L144.704,45.024 C145.5258,45.024 146.192,45.6902003 146.192,46.512 L146.192,46.512 C146.192,47.3337997 145.5258,48 144.704,48 Z M166.76,44.784 C164.312,47.424 162.248,48.288 158.984,48.288 C153.032,48.288 148.52,44.256 148.52,36.192 C148.52,28.128 153.032,24.096 158.984,24.096 C162.248,24.096 164.312,24.96 166.76,27.6 L164.408,29.808 C162.632,27.84 161.24,27.168 158.984,27.168 C156.68,27.168 154.76,28.08 153.512,29.856 C152.408,31.392 151.976,33.216 151.976,36.192 C151.976,39.168 152.408,40.992 153.512,42.528 C154.76,44.304 156.68,45.216 158.984,45.216 C161.24,45.216 162.632,44.496 164.408,42.528 L166.76,44.784 Z M187.184,48 L187.184,48 C186.229652,48 185.456,47.226348 185.456,46.272 L185.456,33.408 C185.456,29.232 183.296,27.168 179.696,27.168 C176.096,27.168 173.792,29.232 173.792,33.408 L173.792,46.272 C173.792,47.226348 173.018348,48 172.064,48 L172.064,48 C171.109652,48 170.336,47.226348 170.336,46.272 L170.336,15.552 C170.336,14.597652 171.109652,13.824 172.064,13.824 L172.064,13.824 C173.018348,13.824 173.792,14.597652 173.792,15.552 L173.792,26.976 C175.52,25.056 177.728,24.096 180.416,24.096 C185.792,24.096 188.912,27.504 188.912,32.832 L188.912,46.272 C188.912,47.226348 188.138348,48 187.184,48 Z M213.224,17.088 L207.168,17.088 C205.952974,17.088 204.968,18.0729736 204.968,19.288 L204.968,46.176 C204.968,47.1833674 204.151367,48 203.144,48 L203.144,48 C202.136633,48 201.32,47.1833674 201.32,46.176 L201.32,19.288 C201.32,18.0729736 200.335026,17.088 199.12,17.088 L193.064,17.088 C192.162671,17.088 191.432,16.3573287 191.432,15.456 L191.432,15.456 C191.432,14.5546713 192.162671,13.824 193.064,13.824 L213.224,13.824 C214.125329,13.824 214.856,14.5546713 214.856,15.456 L214.856,15.456 C214.856,16.3573287 214.125329,17.088 213.224,17.088 Z M231.824,36.192 C231.824,39.84 231.344,43.152 228.944,45.6 C227.312,47.28 225.056,48.288 222.176,48.288 C219.296,48.288 217.04,47.28 215.408,45.6 C213.008,43.152 212.528,39.84 212.528,36.192 C212.528,32.544 213.008,29.184 215.408,26.784 C217.04,25.104 219.296,24.096 222.176,24.096 C225.056,24.096 227.312,25.104 228.944,26.784 C231.344,29.184 231.824,32.544 231.824,36.192 Z M228.368,36.192 C228.368,33.504 228.224,30.624 226.496,28.896 C225.344,27.744 223.856,27.168 222.176,27.168 C220.496,27.168 219.056,27.744 217.904,28.896 C216.176,30.624 215.984,33.504 215.984,36.192 C215.984,38.832 216.128,41.712 217.904,43.488 C219.056,44.64 220.496,45.216 222.176,45.216 C223.856,45.216 225.344,44.64 226.496,43.488 C228.224,41.712 228.368,38.832 228.368,36.192 Z M265.077498,26.1694903 L258.683175,46.4663096 C258.395586,47.3791727 257.549093,48 256.592,48 L256.563125,48 C255.619352,48 254.780722,47.3980442 254.478766,46.5038804 L248.982225,30.2273013 C248.946885,30.1226504 248.833399,30.066463 248.728748,30.1018032 C248.669472,30.1218207 248.622978,30.1684237 248.6031,30.2277471 L243.150961,46.4989766 C242.850504,47.395653 242.010628,48 241.064952,48 L241.04,48 C240.082549,48 239.235376,47.3798771 238.945992,46.4672051 L232.509801,26.1684478 C232.281066,25.4470537 232.680445,24.6768221 233.401839,24.4480874 C233.53579,24.4056152 233.675477,24.384 233.816,24.384 L234.029114,24.384 C235.011098,24.384 235.874177,25.0347953 236.144264,25.9789063 L240.932359,42.7160528 C240.96274,42.8222496 241.073457,42.883711 241.179654,42.8533307 C241.243517,42.835061 241.294143,42.7862763 241.314764,42.7231335 L246.842056,25.7984794 C247.117589,24.9547924 247.904461,24.384 248.792,24.384 L248.792,24.384 C249.679946,24.384 250.467588,24.953979 250.745176,25.7974197 L256.315797,42.7235368 C256.350328,42.8284576 256.463376,42.8855198 256.568296,42.8509889 C256.631396,42.8302221 256.680066,42.7794806 256.698187,42.7155713 L261.442369,25.983861 C261.710765,25.0372825 262.575036,24.384 263.55893,24.384 L263.768,24.384 C264.526257,24.384 265.140945,24.9986885 265.140945,25.7569452 C265.140945,25.8968901 265.119549,26.0360125 265.077498,26.1694903 Z M283.568,37.104 L269.168,37.104 C269.168,42.288 271.568,45.264 276.128,45.264 C278.864,45.264 280.748686,44.837797 282.32,42.576 C283.074224,41.4903475 286.040316,42.3311358 284.672,44.64 C282.843422,47.7254986 280.016,48.288 276.032,48.288 C269.744,48.288 265.712,44.544 265.712,36.192 C265.712,28.512 269.408,24.096 275.408,24.096 C281.552,24.096 285.104,28.464 285.104,35.568 L285.104,35.568 C285.104,36.4163094 284.416309,37.104 283.568,37.104 Z M281.696,34.512 C281.552,32.592 281.504,31.824 280.928,30.576 C279.92,28.416 277.952,27.024 275.408,27.024 C272.864,27.024 270.896,28.416 269.888,30.576 C269.312,31.824 269.264,32.592 269.168,34.512 L281.696,34.512 Z M305.192,26.304 C307.23691,27.8198273 304.965136,30.6707371 302.636879,28.7204229 C301.272304,27.5773571 300.392,27.168 298.568,27.168 C295.112,27.168 292.904,29.904 292.904,33.504 L292.904,46.272 C292.904,47.226348 292.130348,48 291.176,48 L291.176,48 C290.221652,48 289.448,47.226348 289.448,46.272 L289.448,26.112 C289.448,25.157652 290.221652,24.384 291.176,24.384 L291.176,24.384 C292.130348,24.384 292.904,25.157652 292.904,26.112 L292.904,27.264 C294.2,25.296 296.792,24.096 299.528,24.096 C301.784,24.096 303.379918,24.9607611 305.192,26.304 Z" id="WatchTower"></path>
            </g>
        </g>
    </g>
</svg>
