<?xml version="1.0" encoding="UTF-8"?>
<svg width="30px" height="34px" viewBox="0 0 120 134" version="1.1" xmlns="http://www.w3.org/2000/svg" xmlns:xlink="http://www.w3.org/1999/xlink">
    <!-- Generator: sketchtool 54.1 (76490) - https://sketchapp.com -->
    <title>72BA2E8C-8392-4983-9783-CDE5C4E46AD0</title>
    <desc>Created with sketchtool.</desc>
    <g id="Assets" stroke="none" stroke-width="1" fill="none" fill-rule="evenodd">
        <g id="LOGO" transform="translate(-908.000000, -173.000000)" fill="#0459E4" fill-rule="nonzero">
            <g id="WatchTower-Blue-(Icon)" transform="translate(908.000000, 173.000000)">
                <g id="Logo-Copy">
                    <path d="M33.3333333,106.666667 L33.3333333,106.666667 C37.0152317,106.666667 40,103.681898 40,100 L40,33.3333333 C40,29.651435 37.0152317,26.6666667 33.3333333,26.6666667 L33.3333333,26.6666667 C29.651435,26.6666667 26.6666667,29.651435 26.6666667,33.3333333 L26.6666667,100 C26.6666667,103.681898 29.651435,106.666667 33.3333333,106.666667 Z M60,133.333333 L60,133.333333 C63.6818983,133.333333 66.6666667,130.348565 66.6666667,126.666667 L66.6666667,6.66666667 C66.6666667,2.98476833 63.6818983,-6.76353751e-16 60,0 L60,0 C56.3181017,6.76353751e-16 53.3333333,2.98476833 53.3333333,6.66666667 L53.3333333,126.666667 C53.3333333,130.348565 56.3181017,133.333333 60,133.333333 Z M6.66666667,80 L6.66666667,80 C10.348565,80 13.3333333,77.0152317 13.3333333,73.3333333 L13.3333333,60 C13.3333333,56.3181017 10.348565,53.3333333 6.66666667,53.3333333 L6.66666667,53.3333333 C2.98476833,53.3333333 -4.50902501e-16,56.3181017 0,60 L2.66453526e-15,73.3333333 C1.48034644e-15,77.0152317 2.98476833,80 6.66666667,80 Z M86.6666667,106.666667 L86.6666667,106.666667 C90.348565,106.666667 93.3333333,103.681898 93.3333333,100 L93.3333333,33.3333333 C93.3333333,29.651435 90.348565,26.6666667 86.6666667,26.6666667 L86.6666667,26.6666667 C82.9847683,26.6666667 80,29.651435 80,33.3333333 L80,100 C80,103.681898 82.9847683,106.666667 86.6666667,106.666667 Z M106.666667,60 L106.666667,73.3333333 C106.666667,77.0152317 109.651435,80 113.333333,80 L113.333333,80 C117.015232,80 120,77.0152317 120,73.3333333 L120,60 C120,56.3181017 117.015232,53.3333333 113.333333,53.3333333 L113.333333,53.3333333 C109.651435,53.3333333 106.666667,56.3181017 106.666667,60 Z" id="Shape"></path>
                </g>
            </g>
        </g>
    </g>
</svg>
