<?xml version="1.0" encoding="UTF-8"?>
<svg width="14px" height="17px" viewBox="0 0 14 17" version="1.1" xmlns="http://www.w3.org/2000/svg" xmlns:xlink="http://www.w3.org/1999/xlink">
    <!-- Generator: sketchtool 55.1 (78136) - https://sketchapp.com -->
    <title>39DF79E9-D9BD-4F40-8B76-F2D4A070851D</title>
    <desc>Created with sketchtool.</desc>
    <g id="D0C" stroke="none" stroke-width="1" fill="none" fill-rule="evenodd">
        <g id="Cadre-&gt;-Projects" transform="translate(-69.000000, -448.000000)" fill="#333E44" fill-rule="nonzero">
            <g id="Sidebar" transform="translate(41.000000, 160.000000)">
                <g id="Menu-Inactive" transform="translate(0.000000, 260.000000)">
                    <g id="Roles-Icon" transform="translate(28.000000, 28.000000)">
                        <g id="Group">
                            <path d="M8.74363328,5.35339537 C10.9371817,5.62581667 12.0169779,6.51276975 12.1222411,8.14096219 L1.87436333,8.14096219 C1.97962649,6.51593744 3.05942275,5.62898436 5.25297114,5.35656306 C5.28013582,5.36923382 5.30390492,5.38190457 5.33106961,5.39457533 L5.44312394,5.44842605 C5.5008489,5.48010295 5.55857385,5.50861216 5.6196944,5.53395367 C5.63327674,5.54028905 5.65025467,5.54662443 5.69439728,5.55929519 C6.54329372,5.8887349 7.42275042,5.89823797 8.32258065,5.54979212 C8.33955857,5.54345674 8.3565365,5.53712136 8.37351443,5.53078598 C8.43463497,5.50544447 8.49575552,5.47693526 8.55348048,5.44525836 L8.66213922,5.39140764 C8.6893039,5.37873688 8.71646859,5.36606613 8.74363328,5.35339537 Z M5.4770798,4.83072659 C4.66893039,4.34607009 4.18336163,3.51930311 4.17996604,2.62601465 C4.17996604,1.17838052 5.44312394,-3.55271368e-15 6.99490662,-3.55271368e-15 C8.5466893,-3.55271368e-15 9.8098472,1.17838052 9.8098472,2.62601465 C9.8098472,3.51930311 9.32767402,4.3429024 8.51612903,4.83072659 C7.60950764,5.37556919 6.38709677,5.37873688 5.4770798,4.83072659 Z M13.1375212,15.796278 L0.859083192,15.796278 L0.34295416,10.7691546 C0.312393888,10.4935656 0.410865874,10.2211443 0.611205433,10.0152445 C0.811544992,9.80934468 1.09337861,9.69214017 1.39898132,9.69214017 L12.6078098,9.69214017 C12.9032258,9.69214017 13.1850594,9.80934468 13.385399,10.0152445 C13.582343,10.2211443 13.6808149,10.4935656 13.6536503,10.7691546 L13.1375212,15.796278 Z M6.99830221,12.020392 C6.5704584,12.020392 6.22071307,12.3434963 6.22071307,12.7457929 C6.22071307,13.1449218 6.5704584,13.4711938 6.99830221,13.4711938 C7.42614601,13.4711938 7.77589134,13.1449218 7.77589134,12.7457929 C7.77589134,12.346664 7.42614601,12.020392 6.99830221,12.020392 Z M-1.15463195e-14,16.4456543 L14,16.4456543 L14,17 L-1.15463195e-14,17 L-1.15463195e-14,16.4456543 Z M6.99830221,12.9168481 C6.89643463,12.9168481 6.81494058,12.8376559 6.81494058,12.7457929 C6.81494058,12.6507622 6.89643463,12.5747377 6.99830221,12.5747377 C7.10016978,12.5747377 7.18166384,12.6507622 7.18166384,12.7457929 C7.18166384,12.8408236 7.10016978,12.9168481 6.99830221,12.9168481 Z" id="Combined-Shape"></path>
                        </g>
                    </g>
                </g>
            </g>
        </g>
    </g>
</svg>