<?xml version="1.0" encoding="UTF-8"?>
<svg width="63px" height="63px" viewBox="0 0 63 63" version="1.1" xmlns="http://www.w3.org/2000/svg" xmlns:xlink="http://www.w3.org/1999/xlink">
    <!-- Generator: sketchtool 55.1 (78136) - https://sketchapp.com -->
    <title>522FDE85-BC6A-43C5-8E83-F253C8DAD02D</title>
    <desc>Created with sketchtool.</desc>
    <defs>
        <path d="M14.4884058,22.894053 C11.8684701,27.8580279 7.44728929,31.2665677 1.28515769,33.0980292 C0.755760394,33.2553726 0.199047062,32.9537633 0.0417036614,32.424366 C-0.115639739,31.8949687 0.185969538,31.3382554 0.715366836,31.180912 C6.15245023,29.5649438 10.0394892,26.6737353 12.4298345,22.4881356 L7.71537916,21.5585203 C7.26287091,21.4692929 6.96837359,21.0301294 7.057601,20.5776211 C7.08268247,20.4504228 7.13703457,20.330811 7.21635294,20.2282581 L15.6499515,9.32423183 C15.9321268,8.95939986 16.4566298,8.89239335 16.8214617,9.17456861 C16.964393,9.28511723 17.0676132,9.43904238 17.1156291,9.61324005 L20.778691,22.9025347 C20.9012514,23.3471741 20.6401548,23.8069804 20.1955154,23.9295408 C20.070529,23.9639921 19.9392379,23.9688701 19.8120396,23.9437886 L14.4884058,22.894053 L14.4884058,22.894053 Z" id="path-1"></path>
    </defs>
    <g id="D0C" stroke="none" stroke-width="1" fill="none" fill-rule="evenodd">
        <g id="Engr-Dashboard-Copy" transform="translate(-758.000000, -350.000000)">
            <g id="My-Project" transform="translate(608.000000, 164.000000)">
                <g id="card-2" transform="translate(0.000000, 29.000000)">
                    <g id="Left-Icon" transform="translate(150.000000, 157.000000)">
                        <rect id="Rectangle" fill="#DAE7F8" x="0" y="0" width="63" height="63" rx="31.5"></rect>
                        <g id="Group-6" transform="translate(31.500000, 33.000000) scale(-1, -1) translate(-31.500000, -33.000000) translate(19.000000, 16.000000)" fill="#0459E4">
                            <circle id="Oval" opacity="0.500372024" cx="16.5" cy="8.5" r="8.5"></circle>
                            <g id="Path-4" opacity="0.501813616" fill-rule="nonzero">
                                <use xlink:href="#path-1"></use>
                                <use xlink:href="#path-1"></use>
                            </g>
                            <path d="M11.1675425,15.1196589 L15.6499515,9.32423183 C15.9321268,8.95939986 16.4566298,8.89239335 16.8214617,9.17456861 C16.964393,9.28511723 17.0676132,9.43904238 17.1156291,9.61324005 L19.0448969,16.6124691 C18.2413952,16.8642746 17.3865478,17 16.5,17 C14.4806625,17 12.6257916,16.2958346 11.1675425,15.1196589 Z" id="Combined-Shape"></path>
                            <path d="M6.35756956,14.9041737 C4.18862447,12.6850935 3.11799937,10.4061275 3.11799937,8.05463261 C3.11799937,5.64647155 3.45139661,3.91826466 4.09201037,2.88156846 C4.23717065,2.64665762 4.16441345,2.33854909 3.92950262,2.19338881 C3.69459178,2.04822852 3.38648325,2.12098572 3.24132297,2.35589656 C2.48371367,3.58192498 2.11799937,5.47765149 2.11799937,8.05463261 C2.11799937,10.68828 3.30204137,13.2086687 5.64243044,15.6031558 C5.83544904,15.800636 6.15201087,15.8042529 6.34949108,15.6112343 C6.54697129,15.4182157 6.55058815,15.1016539 6.35756956,14.9041737 Z" id="Path-5" fill-rule="nonzero"></path>
                        </g>
                    </g>
                </g>
            </g>
        </g>
    </g>
</svg>