<?xml version="1.0" encoding="UTF-8"?>
<svg width="50px" height="50px" viewBox="0 0 31 31" version="1.1" xmlns="http://www.w3.org/2000/svg" xmlns:xlink="http://www.w3.org/1999/xlink">
    <!-- Generator: sketchtool 55.1 (78136) - https://sketchapp.com -->
    <title>90C1194D-4A87-41E0-8B5C-67EB004A5074</title>
    <desc>Created with sketchtool.</desc>
    <g id="D0C" stroke="none" stroke-width="1" fill="none" fill-rule="evenodd">
        <g id="Cadre-&gt;-Projects" transform="translate(-59.000000, -181.000000)">
            <g id="Sidebar" transform="translate(41.000000, 160.000000)">
                <g id="Menu-Active">
                    <g id="Project-Icon" transform="translate(18.000000, 21.000000)">
                        <circle id="Oval" fill="#EDF4FD" cx="15.5" cy="15.5" r="15.5"></circle>
                        <g id="Group" transform="translate(9.000000, 9.000000)" fill-rule="nonzero">
                            <path d="M3.24118889,2.92586667 C3.24118889,3.09905556 3.09905556,3.24162222 2.92572222,3.24162222 L0.404588889,3.24162222 C0.231111111,3.24162222 0.0891222222,3.0992 0.0891222222,2.92586667 L0.0891222222,0.404588889 C0.0891222222,0.231111111 0.230966667,0.0888333333 0.404588889,0.0888333333 L2.92586667,0.0888333333 C3.09905556,0.0888333333 3.24133333,0.230966667 3.24133333,0.404588889 L3.24133333,2.92586667 L3.24118889,2.92586667 Z" id="Path" fill="#0459E4"></path>
                            <path d="M8.07588889,2.92586667 C8.07588889,3.09905556 7.93404444,3.24162222 7.76013333,3.24162222 L5.23972222,3.24162222 C5.06624444,3.24162222 4.92396667,3.0992 4.92396667,2.92586667 L4.92396667,0.404588889 C4.92396667,0.231111111 5.0661,0.0888333333 5.23972222,0.0888333333 L7.76013333,0.0888333333 C7.9339,0.0888333333 8.07588889,0.230966667 8.07588889,0.404588889 L8.07588889,2.92586667 L8.07588889,2.92586667 Z" id="Path" fill="#78A6F0"></path>
                            <path d="M12.9108778,2.92586667 C12.9108778,3.09905556 12.7687444,3.24162222 12.5954111,3.24162222 L10.0744222,3.24162222 C9.90094444,3.24162222 9.75866667,3.0992 9.75866667,2.92586667 L9.75866667,0.404588889 C9.75866667,0.231111111 9.9008,0.0888333333 10.0744222,0.0888333333 L12.5954111,0.0888333333 C12.7686,0.0888333333 12.9108778,0.230966667 12.9108778,0.404588889 L12.9108778,2.92586667 L12.9108778,2.92586667 Z" id="Path" fill="#0459E4"></path>
                            <path d="M3.24118889,7.76085556 C3.24118889,7.93433333 3.09905556,8.0769 2.92572222,8.0769 L0.404588889,8.0769 C0.231111111,8.0769 0.0891222222,7.93447778 0.0891222222,7.76085556 L0.0891222222,5.23943333 C0.0891222222,5.06624444 0.230966667,4.92367778 0.404588889,4.92367778 L2.92586667,4.92367778 C3.09905556,4.92367778 3.24133333,5.0661 3.24133333,5.23943333 L3.24133333,7.76085556 L3.24118889,7.76085556 Z" id="Path" fill="#78A6F0"></path>
                            <path d="M6.72345556,8.50561111 C6.60067778,8.62838889 6.39932222,8.62838889 6.27654444,8.50561111 L4.49467778,6.72345556 C4.37161111,6.60067778 4.37161111,6.3999 4.49467778,6.27683333 L6.27654444,4.49467778 C6.39932222,4.3719 6.60067778,4.3719 6.72345556,4.49467778 L8.50561111,6.27683333 C8.62838889,6.3999 8.62838889,6.60067778 8.50561111,6.72345556 L6.72345556,8.50561111 Z" id="Path" fill="#0459E4"></path>
                            <path d="M12.9108778,7.76085556 C12.9108778,7.93433333 12.7687444,8.0769 12.5954111,8.0769 L10.0744222,8.0769 C9.90094444,8.0769 9.75866667,7.93447778 9.75866667,7.76085556 L9.75866667,5.23943333 C9.75866667,5.06624444 9.9008,4.92367778 10.0744222,4.92367778 L12.5954111,4.92367778 C12.7686,4.92367778 12.9108778,5.0661 12.9108778,5.23943333 L12.9108778,7.76085556 L12.9108778,7.76085556 Z" id="Path" fill="#78A6F0"></path>
                            <path d="M3.24118889,12.5951222 C3.24118889,12.7691778 3.09905556,12.9111667 2.92572222,12.9111667 L0.404588889,12.9111667 C0.231111111,12.9111667 0.0891222222,12.7693222 0.0891222222,12.5951222 L0.0891222222,10.0744222 C0.0891222222,9.90152222 0.230966667,9.75895556 0.404588889,9.75895556 L2.92586667,9.75895556 C3.09905556,9.75895556 3.24133333,9.90137778 3.24133333,10.0744222 L3.24133333,12.5951222 L3.24118889,12.5951222 Z" id="Path" fill="#0459E4"></path>
                            <path d="M8.07588889,12.5951222 C8.07588889,12.7691778 7.93404444,12.9111667 7.76013333,12.9111667 L5.23972222,12.9111667 C5.06624444,12.9111667 4.92396667,12.7693222 4.92396667,12.5951222 L4.92396667,10.0744222 C4.92396667,9.90152222 5.0661,9.75895556 5.23972222,9.75895556 L7.76013333,9.75895556 C7.9339,9.75895556 8.07588889,9.90137778 8.07588889,10.0744222 L8.07588889,12.5951222 L8.07588889,12.5951222 Z" id="Path" fill="#78A6F0"></path>
                            <path d="M12.9108778,12.5951222 C12.9108778,12.7691778 12.7687444,12.9111667 12.5954111,12.9111667 L10.0744222,12.9111667 C9.90094444,12.9111667 9.75866667,12.7693222 9.75866667,12.5951222 L9.75866667,10.0744222 C9.75866667,9.90152222 9.9008,9.75895556 10.0744222,9.75895556 L12.5954111,9.75895556 C12.7686,9.75895556 12.9108778,9.90137778 12.9108778,10.0744222 L12.9108778,12.5951222 L12.9108778,12.5951222 Z" id="Path" fill="#0459E4"></path>
                        </g>
                    </g>
                </g>
            </g>
        </g>
    </g>
</svg>