<?xml version="1.0" encoding="UTF-8"?>
<svg width="14px" height="16px" viewBox="0 0 14 16" version="1.1" xmlns="http://www.w3.org/2000/svg" xmlns:xlink="http://www.w3.org/1999/xlink">
    <!-- Generator: sketchtool 55.1 (78136) - https://sketchapp.com -->
    <title>D79EA1CA-1881-4D23-A949-6DB70F48E185</title>
    <desc>Created with sketchtool.</desc>
    <g id="D0C" stroke="none" stroke-width="1" fill="none" fill-rule="evenodd">
        <g id="Cadre-&gt;-Projects" transform="translate(-71.000000, -580.000000)">
            <g id="Sidebar" transform="translate(41.000000, 160.000000)">
                <g id="Group-Copy-4" transform="translate(0.000000, 390.000000)">
                    <g id="grph" transform="translate(30.000000, 30.000000)">
                        <g id="Group">
                            <path d="M13.3518519,3.4 C13.662963,3.7 13.8444444,4.075 13.8185185,4.5 C13.8185185,6.725 13.8185185,9.4 13.8185185,11.625 L13.8185185,13.6 C13.8185185,14.9 12.8333333,15.825 11.5111111,15.825 L2.43703704,15.825 C1.81481481,15.825 1.21851852,15.6 0.803703704,15.2 C0.388888889,14.775 0.155555556,14.225 0.155555556,13.6 L0.155555556,5.825 C0.155555556,4.675 0.155555556,3.5 0.155555556,2.35 C0.155555556,1.125 1.11481481,0.175 2.41111111,0.175 L9.17777778,0.175 C9.6962963,0.175 10.137037,0.35 10.5,0.7 C11.4592593,1.6 12.3925926,2.5 13.3518519,3.4 Z M12.4185185,4.325 C11.4592593,3.425 10.5,2.525 9.56666667,1.625 C9.46296296,1.525 9.38518519,1.475 9.25555556,1.475 L9.25555556,4.1 C9.25555556,4.4 9.30740741,4.45 9.61851852,4.45 L12.4962963,4.45 C12.4962963,4.4 12.4703704,4.375 12.4185185,4.325 Z M12.4962963,13.6 L12.4962963,11.6 C12.4962963,9.8 12.4962963,7.55 12.4962963,5.75 L9.61851852,5.75 C8.55555556,5.75 7.88148148,5.125 7.88148148,4.1 L7.88148148,1.45 L2.41111111,1.45 C1.86666667,1.45 1.5037037,1.8 1.5037037,2.35 C1.5037037,3.5 1.5037037,4.675 1.5037037,5.825 L1.5037037,13.6 C1.5037037,13.875 1.60740741,14.125 1.76296296,14.275 C1.94444444,14.45 2.17777778,14.525 2.46296296,14.525 L2.46296296,14.875 L2.46296296,14.525 L11.537037,14.525 C12.1333333,14.525 12.4962963,14.175 12.4962963,13.6 Z M4.58888889,8.85 C4.82222222,8.85 4.97777778,9 4.97777778,9.25 C4.97777778,10.45 4.97777778,11.225 4.97777778,12.425 C4.97777778,12.675 4.82222222,12.825 4.56296296,12.825 L3.52592593,12.825 C3.24074074,12.825 3.08518519,12.675 3.08518519,12.4 L3.08518519,9.925 C3.08518519,9.75 3.08518519,9.6 3.08518519,9.25 C3.08518519,9 3.24074074,8.85 3.5,8.85 L4.04444444,8.85 L4.58888889,8.85 Z M10.5,7.375 C10.7592593,7.375 10.9148148,7.525 10.8888889,7.775 C10.8888889,8.975 10.8888889,11.225 10.8888889,12.425 C10.8888889,12.675 10.7333333,12.825 10.4740741,12.825 L9.43703704,12.825 C9.15185185,12.825 8.9962963,12.675 8.9962963,12.4 L8.9962963,9.15 C8.9962963,8.55 8.9962963,8.125 8.9962963,7.775 C8.9962963,7.525 9.15185185,7.375 9.41111111,7.375 L9.95555556,7.375 L10.5,7.375 Z M7.51851852,10.225 C7.77777778,10.225 7.93333333,10.375 7.88148148,10.65 L7.88148148,11.65 L7.88148148,12.425 C7.88148148,12.675 7.72592593,12.825 7.46666667,12.825 L6.42962963,12.825 C6.17037037,12.8 6.01481481,12.675 6.01481481,12.4 L6.01481481,10.625 C6.01481481,10.375 6.17037037,10.225 6.42962963,10.225 L6.97407407,10.225 L7.51851852,10.225 Z" id="Combined-Shape" fill="#333E44" fill-rule="nonzero"></path>
                            <g transform="translate(2.851852, 7.250000)"></g>
                        </g>
                    </g>
                </g>
            </g>
        </g>
    </g>
</svg>