<?xml version="1.0" encoding="UTF-8"?>
<svg width="13px" height="12px" viewBox="0 0 13 12" version="1.1" xmlns="http://www.w3.org/2000/svg" xmlns:xlink="http://www.w3.org/1999/xlink">
    <!-- Generator: sketchtool 52.5 (67469) - http://www.bohemiancoding.com/sketch -->
    <title>579966E5-E6C7-4838-8075-65F5D0F0410A</title>
    <desc>Created with sketchtool.</desc>
    <g id="Ops" stroke="none" stroke-width="1" fill="none" fill-rule="evenodd">
        <g id="TDD-Ops---PIP-Feedback" transform="translate(-1197.000000, -694.000000)" fill="#0459E4">
            <g id="Table" transform="translate(60.000000, 639.000000)">
                <g id="Table-2" transform="translate(0.000000, 37.000000)">
                    <g id="Mathilda-West">
                        <g id="share" transform="translate(1138.000000, 18.000000)">
                            <polygon id="Path" stroke="#0459E4" stroke-width="0.4" points="0 1.875 6.18164062 1.875 5.24414062 2.8125 0.9375 2.8125 0.9375 10.3125 8.4375 10.3125 8.4375 6.00585938 9.375 5.06835938 9.375 11.25 0 11.25"></polygon>
                            <path d="M4.6397225,7.13180893 C5.40473403,6.09946095 6.29863246,5.12914488 7.3214178,4.22086073 C8.34420313,3.31257657 9.19605739,2.81998117 9.87698057,2.74307454 L10.299038,3.88212286 L11.8622962,1.04002003 L8.79810758,0.632436791 L9.41087641,1.62178417 C8.35685589,2.17817138 7.4059783,2.85634658 6.55824363,3.65630978 C5.71050897,4.45627298 5.07100193,5.6147727 4.6397225,7.13180893 Z" id="Path-2"></path>
                        </g>
                    </g>
                </g>
            </g>
        </g>
    </g>
</svg>