<?xml version="1.0" encoding="UTF-8"?>
<svg width="16px" height="16px" viewBox="0 0 16 16" version="1.1" xmlns="http://www.w3.org/2000/svg" xmlns:xlink="http://www.w3.org/1999/xlink">
    <!-- Generator: sketchtool 55.1 (78136) - https://sketchapp.com -->
    <title>273F21B4-F350-46D5-89D9-616D63305A9D</title>
    <desc>Created with sketchtool.</desc>
    <g id="D0C" stroke="none" stroke-width="1" fill="none" fill-rule="evenodd">
        <g id="Cadre-&gt;-Projects" transform="translate(-67.000000, -319.000000)" fill="#333E44" fill-rule="nonzero">
            <g id="Sidebar" transform="translate(41.000000, 160.000000)">
                <g id="Menu-Inactive" transform="translate(0.000000, 130.000000)">
                    <g id="Vacancy-icon" transform="translate(26.000000, 29.000000)">
                        <g id="Group">
                            <path d="M0.052173913,6.93913043 C0.052173913,5.87826087 0.27826087,4.8173913 0.782608696,3.82608696 C1.1826087,3.02608696 1.73913043,2.36521739 2.4,1.77391304 C2.83478261,1.37391304 3.32173913,1.04347826 3.84347826,0.782608696 C4.57391304,0.417391304 5.33913043,0.173913043 6.15652174,0.104347826 C7.07826087,-3.6366743e-14 7.9826087,0.052173913 8.86956522,0.295652174 C9.79130435,0.556521739 10.626087,0.991304348 11.3565217,1.6 C12.4,2.46956522 13.1652174,3.51304348 13.5826087,4.8 C13.7913043,5.46086957 13.8956522,6.13913043 13.9130435,6.83478261 C13.9304348,7.70434783 13.8086957,8.55652174 13.5130435,9.37391304 C13.3043478,9.94782609 13.0086957,10.4869565 12.6608696,10.9913043 C12.5391304,11.1478261 12.5391304,11.1130435 12.6782609,11.2521739 C13.6521739,12.226087 14.6434783,13.2173913 15.6173913,14.1913043 C16.173913,14.7478261 15.9478261,15.6521739 15.2173913,15.8956522 C14.8347826,16.0173913 14.4869565,15.9130435 14.1913043,15.6347826 C13.2173913,14.6434783 12.226087,13.6521739 11.2347826,12.6608696 C11.1652174,12.5913043 11.1130435,12.573913 11.026087,12.6434783 C10.0869565,13.3217391 9.06086957,13.7391304 7.91304348,13.8608696 C6.71304348,14 5.53043478,13.8956522 4.4,13.4434783 C3.63478261,13.1304348 2.95652174,12.6956522 2.34782609,12.1391304 C1.66956522,11.5304348 1.13043478,10.8347826 0.730434783,10.0173913 C0.365217391,9.25217391 0.156521739,8.45217391 0.0695652174,7.6173913 C0.052173913,7.40869565 0.052173913,7.2 0.052173913,6.93913043 Z M11.9304348,6.99130435 C12,4.31304348 9.68695652,2.05217391 7.02608696,2.03468516 C4.29565217,2.0173913 2.05217391,4.33043478 2.03478261,6.95652174 C2.03478261,9.65217391 4.29565217,11.9304348 6.99130435,11.9304348 C9.68695652,11.9304348 11.9826087,9.65217391 11.9304348,6.99130435 Z M6.97391304,11.1304348 C6.22608696,11.1304348 5.51304348,10.9565217 4.86956522,10.5565217 C4.34782609,10.226087 3.89565217,9.80869565 3.54782609,9.30434783 C3.47826087,9.2173913 3.47826087,9.2 3.5826087,9.16521739 C4.06956522,8.95652174 4.55652174,8.7826087 5.04347826,8.60869565 C5.1826087,8.55652174 5.32173913,8.48695652 5.47826087,8.43478261 C5.72173913,8.34782609 5.82608696,8.15652174 5.91304348,7.93043478 C5.96521739,7.77391304 5.94782609,7.65217391 5.84347826,7.51304348 C5.40869565,7.04347826 5.2,6.46956522 5.14782609,5.84347826 C5.11304348,5.44347826 5.11304348,5.04347826 5.23478261,4.64347826 C5.44347826,3.87826087 5.9826087,3.47826087 6.73043478,3.40869565 C7.04347826,3.37391304 7.35652174,3.40869565 7.65217391,3.53043478 C8.20869565,3.73913043 8.50434783,4.15652174 8.64347826,4.69565217 C8.76521739,5.14782609 8.74782609,5.6173913 8.67826087,6.06956522 C8.59130435,6.64347826 8.34782609,7.13043478 7.96521739,7.56521739 C7.91304348,7.6173913 7.89565217,7.68695652 7.91304348,7.75652174 C7.94782609,7.91304348 8,8.05217391 8.06956522,8.19130435 C8.12173913,8.26086957 8.17391304,8.33043478 8.26086957,8.36521739 C8.66086957,8.55652174 9.09565217,8.69565217 9.51304348,8.85217391 C9.75652174,8.93913043 10,9.04347826 10.226087,9.13043478 C10.4695652,9.23478261 10.4695652,9.26956522 10.3130435,9.46086957 C9.93043478,9.96521739 9.46086957,10.3826087 8.88695652,10.6608696 C8.43478261,10.9043478 7.94782609,11.0434783 7.42608696,11.0782609 C7.26956522,11.1304348 7.13043478,11.1304348 6.97391304,11.1304348 Z" id="Combined-Shape"></path>
                        </g>
                    </g>
                </g>
            </g>
        </g>
    </g>
</svg>